<?xml version="1.0" encoding="UTF-8"?>
<svg width="120" height="120" viewBox="0 0 120 120" xmlns="http://www.w3.org/2000/svg">
  <defs>
    <radialGradient id="glow1" cx="50%" cy="50%" r="50%" fx="50%" fy="50%">
      <stop offset="0%" stop-color="#4CD9FF" stop-opacity="0.7"/>
      <stop offset="40%" stop-color="#4CD9FF" stop-opacity="0.3"/>
      <stop offset="100%" stop-color="#4CD9FF" stop-opacity="0"/>
    </radialGradient>
    
    <radialGradient id="glow2" cx="50%" cy="50%" r="50%" fx="50%" fy="50%">
      <stop offset="0%" stop-color="#FF1CFF" stop-opacity="0.7"/>
      <stop offset="40%" stop-color="#FF1CFF" stop-opacity="0.3"/>
      <stop offset="100%" stop-color="#FF1CFF" stop-opacity="0"/>
    </radialGradient>
    
    <filter id="blur" x="-50%" y="-50%" width="200%" height="200%">
      <feGaussianBlur stdDeviation="5" result="blur"/>
    </filter>
  </defs>
  
  <!-- Background is transparent -->
  <rect width="120" height="120" fill="none"/>
  
  <!-- Main glow elements -->
  <g filter="url(#blur)">
    <circle cx="40" cy="40" r="20" fill="url(#glow1)"/>
    <circle cx="80" cy="80" r="25" fill="url(#glow2)"/>
  </g>
  
  <!-- Accent lines -->
  <g stroke-width="1" opacity="0.7">
    <line x1="20" y1="40" x2="60" y2="40" stroke="#4CD9FF"/>
    <line x1="40" y1="20" x2="40" y2="60" stroke="#4CD9FF"/>
    
    <line x1="60" y1="80" x2="100" y2="80" stroke="#FF1CFF"/>
    <line x1="80" y1="60" x2="80" y2="100" stroke="#FF1CFF"/>
  </g>
  
  <!-- Small connecting lines -->
  <g stroke-width="0.5" opacity="0.6" stroke-dasharray="1,2">
    <path d="M40,60 C40,70 60,70 60,80" stroke="#97EBFF"/>
    <path d="M60,40 C70,40 70,60 80,60" stroke="#FFA1FF"/>
  </g>
  
  <!-- Small accent dots -->
  <g fill="#FFFFFF">
    <circle cx="40" cy="40" r="1.5"/>
    <circle cx="80" cy="80" r="1.5"/>
    <circle cx="60" cy="40" r="1"/>
    <circle cx="40" cy="60" r="1"/>
    <circle cx="60" cy="80" r="1"/>
    <circle cx="80" cy="60" r="1"/>
  </g>
</svg> 