<?xml version="1.0" encoding="UTF-8"?>
<svg width="200" height="200" viewBox="0 0 200 200" xmlns="http://www.w3.org/2000/svg">
  <defs>
    <!-- Hat leather texture gradient -->
    <linearGradient id="hatGradient" x1="0%" y1="0%" x2="100%" y2="100%">
      <stop offset="0%" stop-color="#8B4513" />
      <stop offset="50%" stop-color="#A0522D" />
      <stop offset="100%" stop-color="#6B3E26" />
    </linearGradient>
    
    <!-- Hat band gradient -->
    <linearGradient id="bandGradient" x1="0%" y1="0%" x2="0%" y2="100%">
      <stop offset="0%" stop-color="#D2B48C" />
      <stop offset="50%" stop-color="#BC8F8F" />
      <stop offset="100%" stop-color="#8B4513" />
    </linearGradient>
    
    <!-- Hat texture filter -->
    <filter id="hatTexture" x="0" y="0" width="100%" height="100%">
      <feTurbulence type="fractalNoise" baseFrequency="0.05" numOctaves="2" result="noise" />
      <feDisplacementMap in="SourceGraphic" in2="noise" scale="3" xChannelSelector="R" yChannelSelector="G" />
    </filter>
    
    <!-- Shadow effect -->
    <filter id="hatShadow" x="-10%" y="-10%" width="120%" height="120%">
      <feDropShadow dx="0" dy="4" stdDeviation="3" flood-color="rgba(0,0,0,0.3)" />
    </filter>
  </defs>
  
  <!-- Hat brim -->
  <path d="M30,110 C40,130 70,150 100,150 C130,150 160,130 170,110 C180,100 185,95 185,90 C185,85 183,83 180,82 
           C140,73 60,73 20,82 C17,83 15,85 15,90 C15,95 20,100 30,110 Z" 
        fill="url(#hatGradient)" 
        filter="url(#hatShadow)" />
  
  <!-- Hat crown -->
  <path d="M65,80 C65,60 75,40 100,40 C125,40 135,60 135,80 C135,85 134,90 133,95 
           C130,105 120,110 100,110 C80,110 70,105 67,95 C66,90 65,85 65,80 Z" 
        fill="url(#hatGradient)" 
        filter="url(#hatTexture)" />
  
  <!-- Hat indentation on top -->
  <path d="M75,75 C85,65 115,65 125,75 C130,85 120,95 100,95 C80,95 70,85 75,75 Z" 
        fill="#7D3C11" 
        opacity="0.3" />
  
  <!-- Hat band -->
  <path d="M65,85 C68,83 132,83 135,85 C137,88 138,91 137,93 C134,96 66,96 63,93 C62,91 63,88 65,85 Z" 
        fill="url(#bandGradient)" 
        stroke="#8B4513" 
        stroke-width="0.5" />
  
  <!-- Hat band decoration - small studs -->
  <circle cx="75" cy="90" r="2" fill="#D4AF37" />
  <circle cx="90" cy="90" r="2" fill="#D4AF37" />
  <circle cx="105" cy="90" r="2" fill="#D4AF37" />
  <circle cx="120" cy="90" r="2" fill="#D4AF37" />
  
  <!-- Hat shine -->
  <path d="M85,60 Q100,50 115,60" stroke="rgba(255,255,255,0.5)" stroke-width="2" fill="none" />
</svg> 